<svg width="685" height="358" viewBox="0 0 685 358" fill="none" xmlns="http://www.w3.org/2000/svg">
<g clip-path="url(#clip0_20_1320)">
<path d="M563.562 29.7529H106.354C93.0696 29.7529 82.3008 40.5225 82.3008 53.8075V323.293C82.3008 336.578 93.0696 347.348 106.354 347.348H563.562C576.846 347.348 587.615 336.578 587.615 323.293V53.8075C587.615 40.5225 576.846 29.7529 563.562 29.7529Z" fill="white" stroke="#1C7293" stroke-width="5"/>
<path d="M515.401 53.1011H480.383C474.885 53.1011 470.428 57.5583 470.428 63.0567C470.428 68.555 474.885 73.0122 480.383 73.0122H515.401C520.9 73.0122 525.357 68.555 525.357 63.0567C525.357 57.5583 520.9 53.1011 515.401 53.1011Z" fill="#1C7293" stroke="#1C7293" stroke-width="4"/>
<path d="M441.472 53.1011H406.453C400.955 53.1011 396.498 57.5583 396.498 63.0567C396.498 68.555 400.955 73.0122 406.453 73.0122H441.472C446.97 73.0122 451.427 68.555 451.427 63.0567C451.427 57.5583 446.97 53.1011 441.472 53.1011Z" fill="#1C7293" stroke="#1C7293" stroke-width="4"/>
<path d="M377.498 63.0567C377.498 57.5583 373.041 53.1011 367.543 53.1011C362.045 53.1011 357.588 57.5583 357.588 63.0567C357.588 68.555 362.045 73.0122 367.543 73.0122C373.041 73.0122 377.498 68.555 377.498 63.0567Z" fill="#1C7293" stroke="#1C7293" stroke-width="4"/>
<path d="M130.42 61.1112C130.42 56.6873 126.834 53.1011 122.41 53.1011C117.986 53.1011 114.4 56.6873 114.4 61.1112C114.4 65.5351 117.986 69.1214 122.41 69.1214C126.834 69.1214 130.42 65.5351 130.42 61.1112Z" fill="#1C7293" stroke="#1C7293" stroke-width="4"/>
<path d="M88.8856 243.493C94.4995 243.493 99.0505 248.045 99.0505 253.659C99.0505 259.273 94.4995 263.825 88.8856 263.825C83.2717 263.825 78.7207 259.273 78.7207 253.659C78.7207 248.045 83.2717 243.493 88.8856 243.493Z" fill="#FF5959"/>
<path d="M595.462 133.74C588.654 137.671 579.949 135.338 576.019 128.53C572.088 121.722 574.421 113.017 581.228 109.086C588.036 105.155 596.741 107.488 600.671 114.296C604.602 121.104 602.269 129.81 595.462 133.74Z" fill="#FF5959"/>
<path d="M329.513 73.5733C323.654 73.5733 318.905 68.8235 318.905 62.9644C318.905 57.1052 323.654 52.3555 329.513 52.3555C335.372 52.3555 340.121 57.1052 340.121 62.9644C340.121 68.8235 335.372 73.5733 329.513 73.5733Z" fill="#FACF5A"/>
<path d="M202.675 37.7891C210.472 37.7891 216.793 31.4677 216.793 23.6699C216.793 15.8721 210.472 9.55078 202.675 9.55078C194.878 9.55078 188.557 15.8721 188.557 23.6699C188.557 31.4677 194.878 37.7891 202.675 37.7891Z" fill="#FF5959"/>
<path d="M404.508 279.994C398.061 279.994 392.835 285.221 392.835 291.669C392.835 298.116 398.061 303.343 404.508 303.343C410.955 303.343 416.182 298.116 416.182 291.669C416.182 285.221 410.955 279.994 404.508 279.994Z" fill="#FF5959"/>
<path d="M188.587 324.803C182.661 324.803 177.858 319.999 177.858 314.073C177.858 308.147 182.661 303.343 188.587 303.343C194.513 303.343 199.316 308.147 199.316 314.073C199.316 319.999 194.513 324.803 188.587 324.803Z" fill="#FACF5A"/>
<path d="M295.973 274.287C299.818 276.508 301.136 281.426 298.916 285.272C296.695 289.118 291.778 290.435 287.932 288.215C284.086 285.994 282.769 281.077 284.989 277.231C287.209 273.385 292.127 272.067 295.973 274.287Z" fill="#FACF5A"/>
<path d="M561.146 50.8562L546.521 65.4816C545.989 66.0144 545.988 66.878 546.521 67.4106C547.053 67.9432 547.917 67.9431 548.45 67.4103L563.074 52.7849C563.607 52.2522 563.607 51.3885 563.075 50.8559C562.542 50.3233 561.678 50.3234 561.146 50.8562Z" fill="#1C7293"/>
<path d="M559.715 61.3284L555.498 65.5461C554.965 66.0788 554.965 66.9425 555.497 67.4751C556.03 68.0077 556.894 68.0076 557.426 67.4748L561.644 63.2571C562.176 62.7244 562.177 61.8607 561.644 61.3281C561.111 60.7955 560.248 60.7957 559.715 61.3284Z" fill="#1C7293"/>
<path d="M110.093 309.07L97.0071 322.157C96.5307 322.633 96.5307 323.406 97.0071 323.882L97.0077 323.883C97.484 324.359 98.2564 324.359 98.7328 323.883L111.819 310.795C112.296 310.319 112.296 309.547 111.819 309.07L111.819 309.07C111.342 308.593 110.57 308.593 110.093 309.07Z" fill="#1C7293"/>
<path d="M108.813 318.439L105.038 322.214C104.562 322.69 104.562 323.462 105.038 323.939L105.039 323.939C105.515 324.416 106.288 324.416 106.764 323.939L110.539 320.165C111.015 319.688 111.015 318.916 110.539 318.439L110.538 318.439C110.062 317.962 109.289 317.962 108.813 318.439Z" fill="#1C7293"/>
<path d="M549.079 326.699L566.888 308.889C567.537 308.241 567.537 307.189 566.888 306.541C566.24 305.892 565.188 305.892 564.54 306.541L546.731 324.351C546.082 325 546.082 326.051 546.731 326.699C547.379 327.348 548.431 327.348 549.079 326.699Z" fill="#1C7293"/>
<path d="M550.822 313.949L555.959 308.812C556.607 308.163 556.607 307.112 555.959 306.463C555.31 305.815 554.259 305.815 553.61 306.463L548.474 311.6C547.825 312.249 547.826 313.3 548.474 313.949C549.122 314.597 550.174 314.597 550.822 313.949Z" fill="#1C7293"/>
<path fill-rule="evenodd" clip-rule="evenodd" d="M83.8899 190.41C62.7234 190.41 45.5625 173.006 45.5625 151.539C45.5625 130.073 62.7234 112.67 83.8899 112.67C105.056 112.67 122.217 130.073 122.217 151.539C122.217 173.006 105.056 190.41 83.8899 190.41Z" fill="#FF5959"/>
<path d="M99.3317 135.045L83.1407 152.321L73.4199 141.957" stroke="white" stroke-width="7.405" stroke-linecap="round" stroke-linejoin="round"/>
<path d="M66.9629 168.858L83.1539 151.583L92.8747 161.947" stroke="white" stroke-width="7.405" stroke-linecap="round" stroke-linejoin="round"/>
<path d="M201.81 233.72C195.33 233.72 189.45 232.52 184.17 230.12C178.89 227.64 174.33 224.36 170.49 220.28C166.73 216.12 163.81 211.48 161.73 206.36C159.73 201.16 158.73 195.8 158.73 190.28C158.73 184.6 159.81 179.2 161.97 174.08C164.13 168.96 167.13 164.4 170.97 160.4C174.89 156.32 179.49 153.12 184.77 150.8C190.13 148.48 195.97 147.32 202.29 147.32C208.77 147.32 214.65 148.56 219.93 151.04C225.21 153.44 229.73 156.72 233.49 160.88C237.25 165.04 240.13 169.72 242.13 174.92C244.21 180.04 245.25 185.32 245.25 190.76C245.25 196.36 244.17 201.72 242.01 206.84C239.93 211.96 236.93 216.56 233.01 220.64C229.17 224.64 224.61 227.84 219.33 230.24C214.05 232.56 208.21 233.72 201.81 233.72ZM182.49 190.52C182.49 193.4 182.89 196.2 183.69 198.92C184.49 201.56 185.69 203.96 187.29 206.12C188.89 208.2 190.89 209.88 193.29 211.16C195.77 212.36 198.69 212.96 202.05 212.96C205.41 212.96 208.33 212.32 210.81 211.04C213.29 209.76 215.29 208.04 216.81 205.88C218.41 203.64 219.57 201.2 220.29 198.56C221.09 195.84 221.49 193.08 221.49 190.28C221.49 187.4 221.09 184.64 220.29 182C219.49 179.36 218.29 177 216.69 174.92C215.09 172.76 213.05 171.08 210.57 169.88C208.09 168.68 205.21 168.08 201.93 168.08C198.57 168.08 195.65 168.72 193.17 170C190.77 171.28 188.77 173 187.17 175.16C185.57 177.24 184.37 179.64 183.57 182.36C182.85 185 182.49 187.72 182.49 190.52ZM293.568 233.72C287.088 233.72 281.208 232.52 275.928 230.12C270.648 227.64 266.088 224.36 262.248 220.28C258.488 216.12 255.568 211.48 253.488 206.36C251.488 201.16 250.488 195.8 250.488 190.28C250.488 184.6 251.568 179.2 253.728 174.08C255.888 168.96 258.888 164.4 262.728 160.4C266.648 156.32 271.248 153.12 276.528 150.8C281.888 148.48 287.728 147.32 294.048 147.32C300.528 147.32 306.408 148.56 311.688 151.04C316.968 153.44 321.488 156.72 325.248 160.88C329.008 165.04 331.888 169.72 333.888 174.92C335.968 180.04 337.008 185.32 337.008 190.76C337.008 196.36 335.928 201.72 333.768 206.84C331.688 211.96 328.688 216.56 324.768 220.64C320.928 224.64 316.368 227.84 311.088 230.24C305.808 232.56 299.968 233.72 293.568 233.72ZM274.248 190.52C274.248 193.4 274.648 196.2 275.448 198.92C276.248 201.56 277.448 203.96 279.048 206.12C280.648 208.2 282.648 209.88 285.048 211.16C287.528 212.36 290.448 212.96 293.808 212.96C297.168 212.96 300.088 212.32 302.568 211.04C305.048 209.76 307.048 208.04 308.568 205.88C310.168 203.64 311.328 201.2 312.048 198.56C312.848 195.84 313.248 193.08 313.248 190.28C313.248 187.4 312.848 184.64 312.048 182C311.248 179.36 310.048 177 308.448 174.92C306.848 172.76 304.808 171.08 302.328 169.88C299.848 168.68 296.968 168.08 293.688 168.08C290.328 168.08 287.408 168.72 284.928 170C282.528 171.28 280.528 173 278.928 175.16C277.328 177.24 276.128 179.64 275.328 182.36C274.608 185 274.248 187.72 274.248 190.52ZM346.925 233V147.8H383.645C387.805 147.8 391.645 148.64 395.165 150.32C398.685 152 401.725 154.28 404.285 157.16C406.845 159.96 408.805 163.12 410.165 166.64C411.605 170.16 412.325 173.72 412.325 177.32C412.325 182.36 411.125 187.12 408.725 191.6C406.405 196.08 403.125 199.76 398.885 202.64C394.725 205.44 389.845 206.84 384.245 206.84H370.325V233H346.925ZM370.325 186.44H382.685C383.645 186.44 384.565 186.16 385.445 185.6C386.325 185.04 387.045 184.08 387.605 182.72C388.245 181.36 388.565 179.56 388.565 177.32C388.565 174.92 388.205 173.08 387.485 171.8C386.845 170.44 386.005 169.52 384.965 169.04C384.005 168.48 383.045 168.2 382.085 168.2H370.325V186.44ZM473.291 175.64C473.291 175.64 472.611 175.24 471.251 174.44C469.891 173.64 468.091 172.76 465.851 171.8C463.611 170.76 461.171 169.84 458.531 169.04C455.891 168.24 453.291 167.84 450.731 167.84C448.731 167.84 447.091 168.16 445.811 168.8C444.531 169.44 443.891 170.52 443.891 172.04C443.891 173.48 444.531 174.64 445.811 175.52C447.091 176.4 448.891 177.2 451.211 177.92C453.611 178.64 456.451 179.52 459.731 180.56C465.011 182.16 469.571 184 473.411 186.08C477.251 188.16 480.211 190.84 482.291 194.12C484.371 197.32 485.411 201.6 485.411 206.96C485.411 212.08 484.491 216.4 482.651 219.92C480.811 223.36 478.331 226.12 475.211 228.2C472.091 230.28 468.611 231.8 464.771 232.76C460.931 233.64 457.011 234.08 453.011 234.08C448.931 234.08 444.651 233.68 440.171 232.88C435.771 232 431.491 230.84 427.331 229.4C423.171 227.88 419.371 226.12 415.931 224.12L426.011 203.6C426.011 203.6 426.811 204.08 428.411 205.04C430.011 206 432.131 207.08 434.771 208.28C437.411 209.48 440.331 210.56 443.531 211.52C446.811 212.48 450.091 212.96 453.371 212.96C455.931 212.96 457.691 212.64 458.651 212C459.691 211.28 460.211 210.36 460.211 209.24C460.211 207.56 459.331 206.28 457.571 205.4C455.811 204.44 453.491 203.56 450.611 202.76C447.811 201.88 444.691 200.88 441.251 199.76C436.291 198.08 432.211 196.2 429.011 194.12C425.811 191.96 423.451 189.44 421.931 186.56C420.411 183.6 419.651 180.04 419.651 175.88C419.651 169.56 421.131 164.28 424.091 160.04C427.051 155.8 430.931 152.6 435.731 150.44C440.611 148.2 445.851 147.08 451.451 147.08C455.611 147.08 459.611 147.6 463.451 148.64C467.371 149.6 471.011 150.8 474.371 152.24C477.811 153.68 480.811 155.04 483.371 156.32L473.291 175.64ZM498.754 197V146.96H521.554V197H498.754ZM498.754 233V210.92H521.554V233H498.754Z" fill="#1C7293"/>
<path d="M198.81 230.72C192.33 230.72 186.45 229.52 181.17 227.12C175.89 224.64 171.33 221.36 167.49 217.28C163.73 213.12 160.81 208.48 158.73 203.36C156.73 198.16 155.73 192.8 155.73 187.28C155.73 181.6 156.81 176.2 158.97 171.08C161.13 165.96 164.13 161.4 167.97 157.4C171.89 153.32 176.49 150.12 181.77 147.8C187.13 145.48 192.97 144.32 199.29 144.32C205.77 144.32 211.65 145.56 216.93 148.04C222.21 150.44 226.73 153.72 230.49 157.88C234.25 162.04 237.13 166.72 239.13 171.92C241.21 177.04 242.25 182.32 242.25 187.76C242.25 193.36 241.17 198.72 239.01 203.84C236.93 208.96 233.93 213.56 230.01 217.64C226.17 221.64 221.61 224.84 216.33 227.24C211.05 229.56 205.21 230.72 198.81 230.72ZM179.49 187.52C179.49 190.4 179.89 193.2 180.69 195.92C181.49 198.56 182.69 200.96 184.29 203.12C185.89 205.2 187.89 206.88 190.29 208.16C192.77 209.36 195.69 209.96 199.05 209.96C202.41 209.96 205.33 209.32 207.81 208.04C210.29 206.76 212.29 205.04 213.81 202.88C215.41 200.64 216.57 198.2 217.29 195.56C218.09 192.84 218.49 190.08 218.49 187.28C218.49 184.4 218.09 181.64 217.29 179C216.49 176.36 215.29 174 213.69 171.92C212.09 169.76 210.05 168.08 207.57 166.88C205.09 165.68 202.21 165.08 198.93 165.08C195.57 165.08 192.65 165.72 190.17 167C187.77 168.28 185.77 170 184.17 172.16C182.57 174.24 181.37 176.64 180.57 179.36C179.85 182 179.49 184.72 179.49 187.52ZM290.568 230.72C284.088 230.72 278.208 229.52 272.928 227.12C267.648 224.64 263.088 221.36 259.248 217.28C255.488 213.12 252.568 208.48 250.488 203.36C248.488 198.16 247.488 192.8 247.488 187.28C247.488 181.6 248.568 176.2 250.728 171.08C252.888 165.96 255.888 161.4 259.728 157.4C263.648 153.32 268.248 150.12 273.528 147.8C278.888 145.48 284.728 144.32 291.048 144.32C297.528 144.32 303.408 145.56 308.688 148.04C313.968 150.44 318.488 153.72 322.248 157.88C326.008 162.04 328.888 166.72 330.888 171.92C332.968 177.04 334.008 182.32 334.008 187.76C334.008 193.36 332.928 198.72 330.768 203.84C328.688 208.96 325.688 213.56 321.768 217.64C317.928 221.64 313.368 224.84 308.088 227.24C302.808 229.56 296.968 230.72 290.568 230.72ZM271.248 187.52C271.248 190.4 271.648 193.2 272.448 195.92C273.248 198.56 274.448 200.96 276.048 203.12C277.648 205.2 279.648 206.88 282.048 208.16C284.528 209.36 287.448 209.96 290.808 209.96C294.168 209.96 297.088 209.32 299.568 208.04C302.048 206.76 304.048 205.04 305.568 202.88C307.168 200.64 308.328 198.2 309.048 195.56C309.848 192.84 310.248 190.08 310.248 187.28C310.248 184.4 309.848 181.64 309.048 179C308.248 176.36 307.048 174 305.448 171.92C303.848 169.76 301.808 168.08 299.328 166.88C296.848 165.68 293.968 165.08 290.688 165.08C287.328 165.08 284.408 165.72 281.928 167C279.528 168.28 277.528 170 275.928 172.16C274.328 174.24 273.128 176.64 272.328 179.36C271.608 182 271.248 184.72 271.248 187.52ZM343.925 230V144.8H380.645C384.805 144.8 388.645 145.64 392.165 147.32C395.685 149 398.725 151.28 401.285 154.16C403.845 156.96 405.805 160.12 407.165 163.64C408.605 167.16 409.325 170.72 409.325 174.32C409.325 179.36 408.125 184.12 405.725 188.6C403.405 193.08 400.125 196.76 395.885 199.64C391.725 202.44 386.845 203.84 381.245 203.84H367.325V230H343.925ZM367.325 183.44H379.685C380.645 183.44 381.565 183.16 382.445 182.6C383.325 182.04 384.045 181.08 384.605 179.72C385.245 178.36 385.565 176.56 385.565 174.32C385.565 171.92 385.205 170.08 384.485 168.8C383.845 167.44 383.005 166.52 381.965 166.04C381.005 165.48 380.045 165.2 379.085 165.2H367.325V183.44ZM470.291 172.64C470.291 172.64 469.611 172.24 468.251 171.44C466.891 170.64 465.091 169.76 462.851 168.8C460.611 167.76 458.171 166.84 455.531 166.04C452.891 165.24 450.291 164.84 447.731 164.84C445.731 164.84 444.091 165.16 442.811 165.8C441.531 166.44 440.891 167.52 440.891 169.04C440.891 170.48 441.531 171.64 442.811 172.52C444.091 173.4 445.891 174.2 448.211 174.92C450.611 175.64 453.451 176.52 456.731 177.56C462.011 179.16 466.571 181 470.411 183.08C474.251 185.16 477.211 187.84 479.291 191.12C481.371 194.32 482.411 198.6 482.411 203.96C482.411 209.08 481.491 213.4 479.651 216.92C477.811 220.36 475.331 223.12 472.211 225.2C469.091 227.28 465.611 228.8 461.771 229.76C457.931 230.64 454.011 231.08 450.011 231.08C445.931 231.08 441.651 230.68 437.171 229.88C432.771 229 428.491 227.84 424.331 226.4C420.171 224.88 416.371 223.12 412.931 221.12L423.011 200.6C423.011 200.6 423.811 201.08 425.411 202.04C427.011 203 429.131 204.08 431.771 205.28C434.411 206.48 437.331 207.56 440.531 208.52C443.811 209.48 447.091 209.96 450.371 209.96C452.931 209.96 454.691 209.64 455.651 209C456.691 208.28 457.211 207.36 457.211 206.24C457.211 204.56 456.331 203.28 454.571 202.4C452.811 201.44 450.491 200.56 447.611 199.76C444.811 198.88 441.691 197.88 438.251 196.76C433.291 195.08 429.211 193.2 426.011 191.12C422.811 188.96 420.451 186.44 418.931 183.56C417.411 180.6 416.651 177.04 416.651 172.88C416.651 166.56 418.131 161.28 421.091 157.04C424.051 152.8 427.931 149.6 432.731 147.44C437.611 145.2 442.851 144.08 448.451 144.08C452.611 144.08 456.611 144.6 460.451 145.64C464.371 146.6 468.011 147.8 471.371 149.24C474.811 150.68 477.811 152.04 480.371 153.32L470.291 172.64ZM495.754 194V143.96H518.554V194H495.754ZM495.754 230V207.92H518.554V230H495.754Z" fill="#343434"/>
</g>
<defs>
<clipPath id="clip0_20_1320">
<rect width="685" height="358" fill="white"/>
</clipPath>
</defs>
</svg>
